{
  "accessors": [
    {
      "bufferView": 2,
      "componentType": 5126,
      "count": 2412,
      "max": [
        31.41315460205078,
        33.99281311035156,
        48.36848831176758
      ],
      "min": [
        -31.41302490234375,
        -33.99281311035156,
        -23.704410552978516
      ],
      "type": "VEC3"
    },
    {
      "bufferView": 2,
      "byteOffset": 28944,
      "componentType": 5126,
      "count": 2412,
      "max": [
        1.0,
        1.0,
        0.9999979734420776
      ],
      "min": [
        -1.0,
        -1.0,
        -1.0
      ],
      "type": "VEC3"
    },
    {
      "bufferView": 1,
      "componentType": 5126,
      "count": 2412,
      "max": [
        0.9125017523765564,
        0.6549814939498901
      ],
      "min": [
        0.062139853835105896,
        0.028295621275901794
      ],
      "type": "VEC2"
    },
    {
      "bufferView": 1,
      "byteOffset": 19296,
      "componentType": 5126,
      "count": 2412,
      "max": [
        0.9125017523765564,
        0.6549814939498901
      ],
      "min": [
        0.062139853835105896,
        0.028295621275901794
      ],
      "type": "VEC2"
    },
    {
      "bufferView": 0,
      "componentType": 5125,
      "count": 6912,
      "type": "SCALAR"
    },
    {
      "bufferView": 2,
      "byteOffset": 57888,
      "componentType": 5126,
      "count": 4068,
      "max": [
        30.32464599609375,
        33.16013717651367,
        43.061737060546875
      ],
      "min": [
        -30.324600219726563,
        -33.16014099121094,
        -14.376838684082031
      ],
      "type": "VEC3"
    },
    {
      "bufferView": 2,
      "byteOffset": 106704,
      "componentType": 5126,
      "count": 4068,
      "max": [
        1.0,
        1.0,
        0.9999974370002747
      ],
      "min": [
        -1.0,
        -1.0,
        -0.99988853931427
      ],
      "type": "VEC3"
    },
    {
      "bufferView": 1,
      "byteOffset": 38592,
      "componentType": 5126,
      "count": 4068,
      "max": [
        0.8681093454360962,
        0.4951057434082031
      ],
      "min": [
        0.8181350827217102,
        0.004121557343751192
      ],
      "type": "VEC2"
    },
    {
      "bufferView": 0,
      "byteOffset": 27648,
      "componentType": 5125,
      "count": 7560,
      "type": "SCALAR"
    },
    {
      "bufferView": 2,
      "byteOffset": 155520,
      "componentType": 5126,
      "count": 384,
      "max": [
        10.969064712524414,
        19.64385986328125,
        57.792144775390625
      ],
      "min": [
        -18.91521644592285,
        -36.16916275024414,
        -7.743837356567383
      ],
      "type": "VEC3"
    },
    {
      "bufferView": 2,
      "byteOffset": 160128,
      "componentType": 5126,
      "count": 384,
      "max": [
        0.9492295980453491,
        0.7901359796524048,
        0.728143036365509
      ],
      "min": [
        -0.9492296576499939,
        -0.790135383605957,
        -0.7281247973442078
      ],
      "type": "VEC3"
    },
    {
      "bufferView": 1,
      "byteOffset": 71136,
      "componentType": 5126,
      "count": 384,
      "max": [
        0.7434973120689392,
        0.28292810916900635
      ],
      "min": [
        0.6940250992774963,
        0.23345592617988586
      ],
      "type": "VEC2"
    },
    {
      "bufferView": 0,
      "byteOffset": 57888,
      "componentType": 5125,
      "count": 1152,
      "type": "SCALAR"
    },
    {
      "bufferView": 2,
      "byteOffset": 164736,
      "componentType": 5126,
      "count": 96,
      "max": [
        20.952865600585938,
        23.524803161621094,
        35.413719177246094
      ],
      "min": [
        -3.2450361251831055,
        -2.1982851028442383,
        11.695196151733398
      ],
      "type": "VEC3"
    },
    {
      "bufferView": 2,
      "byteOffset": 165888,
      "componentType": 5126,
      "count": 96,
      "max": [
        0.9787786602973938,
        0.9664705991744995,
        0.9055695533752441
      ],
      "min": [
        -0.9787786602973938,
        -0.9664705991744995,
        -0.9055696129798889
      ],
      "type": "VEC3"
    },
    {
      "bufferView": 1,
      "byteOffset": 74208,
      "componentType": 5126,
      "count": 96,
      "max": [
        1.007154941558838,
        0.49037885665893555
      ],
      "min": [
        0.9399577975273132,
        -0.0007093569729477167
      ],
      "type": "VEC2"
    },
    {
      "bufferView": 0,
      "byteOffset": 62496,
      "componentType": 5125,
      "count": 132,
      "type": "SCALAR"
    },
    {
      "bufferView": 2,
      "byteOffset": 167040,
      "componentType": 5126,
      "count": 96,
      "max": [
        8.909551620483398,
        4.39670467376709,
        11.809619903564453
      ],
      "min": [
        -21.129072189331055,
        -25.916362762451172,
        -13.737465858459473
      ],
      "type": "VEC3"
    },
    {
      "bufferView": 2,
      "byteOffset": 168192,
      "componentType": 5126,
      "count": 96,
      "max": [
        0.9701789021492004,
        0.9656252861022949,
        0.9706958532333374
      ],
      "min": [
        -0.9701789021492004,
        -0.9656252861022949,
        -0.9706957936286926
      ],
      "type": "VEC3"
    },
    {
      "bufferView": 1,
      "byteOffset": 74976,
      "componentType": 5126,
      "count": 96,
      "max": [
        1.007154941558838,
        0.49037885665893555
      ],
      "min": [
        0.9399577975273132,
        -0.0007093569729477167
      ],
      "type": "VEC2"
    },
    {
      "bufferView": 0,
      "byteOffset": 63024,
      "componentType": 5125,
      "count": 132,
      "type": "SCALAR"
    },
    {
      "bufferView": 2,
      "byteOffset": 169344,
      "componentType": 5126,
      "count": 35,
      "max": [
        16.562191009521484,
        49.13994598388672,
        -0.8699579238891602
      ],
      "min": [
        -15.907179832458496,
        -32.564945220947266,
        -16.239410400390625
      ],
      "type": "VEC3"
    },
    {
      "bufferView": 2,
      "byteOffset": 169764,
      "componentType": 5126,
      "count": 35,
      "max": [
        0.40314042568206787,
        0.37701931595802307,
        0.9991428852081299
      ],
      "min": [
        -0.27833831310272217,
        -0.7655113339424133,
        0.6292600631713867
      ],
      "type": "VEC3"
    },
    {
      "bufferView": 1,
      "byteOffset": 75744,
      "componentType": 5126,
      "count": 35,
      "max": [
        0.6690672039985657,
        0.8677522540092468
      ],
      "min": [
        0.6380863189697266,
        0.8250032067298889
      ],
      "type": "VEC2"
    },
    {
      "bufferView": 0,
      "byteOffset": 63552,
      "componentType": 5125,
      "count": 144,
      "type": "SCALAR"
    }
  ],
  "asset": {
    "extras": {
      "author": "Padrie (https://sketchfab.com/Padrie)",
      "license": "CC-BY-4.0 (http://creativecommons.org/licenses/by/4.0/)",
      "source": "https://sketchfab.com/3d-models/drink-g2-5f3e2f1cddb24399ad5ddd51fe0add4f",
      "title": "Drink G2"
    },
    "generator": "Sketchfab-13.33.0",
    "version": "2.0"
  },
  "bufferViews": [
    {
      "buffer": 0,
      "byteLength": 64128,
      "name": "floatBufferViews",
      "target": 34963
    },
    {
      "buffer": 0,
      "byteLength": 76024,
      "byteOffset": 64128,
      "byteStride": 8,
      "name": "floatBufferViews",
      "target": 34962
    },
    {
      "buffer": 0,
      "byteLength": 170184,
      "byteOffset": 140152,
      "byteStride": 12,
      "name": "floatBufferViews",
      "target": 34962
    }
  ],
  "buffers": [
    {
      "byteLength": 310336,
      "uri": "scene.bin"
    }
  ],
  "extensionsUsed": [
    "KHR_materials_unlit"
  ],
  "images": [
    {
      "uri": "textures/Glass_MTL_baseColor.png"
    },
    {
      "uri": "textures/Liquid_MTL_baseColor.jpeg"
    }
  ],
  "materials": [
    {
      "alphaMode": "BLEND",
      "doubleSided": true,
      "extensions": {
        "KHR_materials_unlit": {}
      },
      "name": "Glass_MTL",
      "pbrMetallicRoughness": {
        "baseColorTexture": {
          "index": 0
        },
        "metallicFactor": 0.0
      }
    },
    {
      "alphaMode": "BLEND",
      "doubleSided": true,
      "extensions": {
        "KHR_materials_unlit": {}
      },
      "name": "Liquid_MTL",
      "pbrMetallicRoughness": {
        "baseColorFactor": [
          1.0,
          1.0,
          1.0,
          0.7238117297
        ],
        "baseColorTexture": {
          "index": 1
        },
        "metallicFactor": 0.0
      }
    },
    {
      "doubleSided": true,
      "extensions": {
        "KHR_materials_unlit": {}
      },
      "name": "Straw_MTL",
      "pbrMetallicRoughness": {
        "baseColorFactor": [
          0.027451,
          0.027451,
          0.027451,
          1.0
        ],
        "metallicFactor": 0.0
      }
    },
    {
      "doubleSided": true,
      "extensions": {
        "KHR_materials_unlit": {}
      },
      "name": "Ice_MTL",
      "pbrMetallicRoughness": {
        "baseColorTexture": {
          "index": 1
        },
        "metallicFactor": 0.0
      }
    },
    {
      "doubleSided": true,
      "extensions": {
        "KHR_materials_unlit": {}
      },
      "name": "Leaf_MTL",
      "pbrMetallicRoughness": {
        "baseColorTexture": {
          "index": 1
        },
        "metallicFactor": 0.0
      }
    }
  ],
  "meshes": [
    {
      "name": "Glas_Glass_MTL_0",
      "primitives": [
        {
          "attributes": {
            "NORMAL": 1,
            "POSITION": 0,
            "TEXCOORD_0": 2,
            "TEXCOORD_1": 3
          },
          "indices": 4,
          "material": 0,
          "mode": 4
        }
      ]
    },
    {
      "name": "Juice_Liquid_MTL_0",
      "primitives": [
        {
          "attributes": {
            "NORMAL": 6,
            "POSITION": 5,
            "TEXCOORD_0": 7
          },
          "indices": 8,
          "material": 1,
          "mode": 4
        }
      ]
    },
    {
      "name": "Line001_Straw_MTL_0",
      "primitives": [
        {
          "attributes": {
            "NORMAL": 10,
            "POSITION": 9,
            "TEXCOORD_0": 11
          },
          "indices": 12,
          "material": 2,
          "mode": 4
        }
      ]
    },
    {
      "name": "Box001_Ice_MTL_0",
      "primitives": [
        {
          "attributes": {
            "NORMAL": 14,
            "POSITION": 13,
            "TEXCOORD_0": 15
          },
          "indices": 16,
          "material": 3,
          "mode": 4
        }
      ]
    },
    {
      "name": "Box002_Ice_MTL_0",
      "primitives": [
        {
          "attributes": {
            "NORMAL": 18,
            "POSITION": 17,
            "TEXCOORD_0": 19
          },
          "indices": 20,
          "material": 3,
          "mode": 4
        }
      ]
    },
    {
      "name": "Blatt_Leaf_MTL_0",
      "primitives": [
        {
          "attributes": {
            "NORMAL": 22,
            "POSITION": 21,
            "TEXCOORD_0": 23
          },
          "indices": 24,
          "material": 4,
          "mode": 4
        }
      ]
    }
  ],
  "nodes": [
    {
      "children": [
        1
      ],
      "matrix": [
        1.0,
        0.0,
        0.0,
        0.0,
        0.0,
        2.220446049250313e-16,
        -1.0,
        0.0,
        0.0,
        1.0,
        2.220446049250313e-16,
        0.0,
        0.0,
        0.0,
        0.0,
        1.0
      ],
      "name": "Sketchfab_model"
    },
    {
      "children": [
        2
      ],
      "matrix": [
        0.009999999776482582,
        0.0,
        0.0,
        0.0,
        0.0,
        0.0,
        0.009999999776482582,
        0.0,
        0.0,
        -0.009999999776482582,
        0.0,
        0.0,
        0.0,
        0.0,
        0.0,
        1.0
      ],
      "name": "4505ab95ffd5404eab431f9c59bbd76f.fbx"
    },
    {
      "children": [
        3,
        5,
        7,
        9,
        11,
        13
      ],
      "name": "RootNode"
    },
    {
      "children": [
        4
      ],
      "matrix": [
        1.0,
        0.0,
        0.0,
        0.0,
        0.0,
        2.220446049250313e-16,
        -1.0,
        0.0,
        0.0,
        1.0,
        2.220446049250313e-16,
        0.0,
        0.0,
        0.0,
        0.0,
        1.0
      ],
      "name": "Glas"
    },
    {
      "mesh": 0,
      "name": "Glas_Glass_MTL_0"
    },
    {
      "children": [
        6
      ],
      "matrix": [
        1.0,
        0.0,
        0.0,
        0.0,
        0.0,
        2.220446049250313e-16,
        -1.0,
        0.0,
        0.0,
        1.0,
        2.220446049250313e-16,
        0.0,
        0.0,
        0.0,
        0.0,
        1.0
      ],
      "name": "Juice"
    },
    {
      "mesh": 1,
      "name": "Juice_Liquid_MTL_0"
    },
    {
      "children": [
        8
      ],
      "matrix": [
        0.9999999999999847,
        -3.970466940254533e-23,
        1.7484555314694902e-07,
        0.0,
        1.7484555314694902e-07,
        3.3306690738754696e-16,
        -0.9999999999999847,
        0.0,
        -3.970466940254533e-23,
        1.0,
        3.3306690738754696e-16,
        0.0,
        0.0,
        0.0,
        0.0,
        1.0
      ],
      "name": "Line001"
    },
    {
      "mesh": 2,
      "name": "Line001_Straw_MTL_0"
    },
    {
      "children": [
        10
      ],
      "matrix": [
        1.0,
        0.0,
        0.0,
        0.0,
        0.0,
        2.220446049250313e-16,
        -1.0,
        0.0,
        0.0,
        1.0,
        2.220446049250313e-16,
        0.0,
        0.0,
        0.0,
        0.0,
        1.0
      ],
      "name": "Box001"
    },
    {
      "mesh": 3,
      "name": "Box001_Ice_MTL_0"
    },
    {
      "children": [
        12
      ],
      "matrix": [
        1.0,
        0.0,
        0.0,
        0.0,
        0.0,
        2.220446049250313e-16,
        -1.0,
        0.0,
        0.0,
        1.0,
        2.220446049250313e-16,
        0.0,
        0.0,
        1.586700439453125,
        0.0,
        1.0
      ],
      "name": "Box002"
    },
    {
      "mesh": 4,
      "name": "Box002_Ice_MTL_0"
    },
    {
      "children": [
        14
      ],
      "matrix": [
        -0.4301730357738364,
        5.693021183213644e-17,
        -0.03763518822933002,
        0.0,
        -0.03763518822933002,
        -9.588246203307189e-17,
        0.4301730357738363,
        0.0,
        5.093755795506944e-17,
        0.4318162202835083,
        4.7941231016535946e-17,
        0.0,
        0.0,
        49.501380920410156,
        -28.23299217224121,
        1.0
      ],
      "name": "Blatt"
    },
    {
      "mesh": 5,
      "name": "Blatt_Leaf_MTL_0"
    }
  ],
  "samplers": [
    {
      "magFilter": 9729,
      "minFilter": 9987,
      "wrapS": 10497,
      "wrapT": 10497
    }
  ],
  "scene": 0,
  "scenes": [
    {
      "name": "Sketchfab_Scene",
      "nodes": [
        0
      ]
    }
  ],
  "textures": [
    {
      "sampler": 0,
      "source": 0
    },
    {
      "sampler": 0,
      "source": 1
    }
  ]
}
