{
  "accessors": [
    {
      "bufferView": 2,
      "componentType": 5126,
      "count": 5800,
      "max": [
        25.372928619384766,
        34.61402130126953,
        17.209152221679688
      ],
      "min": [
        -25.372928619384766,
        0.0,
        -26.885162353515625
      ],
      "type": "VEC3"
    },
    {
      "bufferView": 2,
      "byteOffset": 69600,
      "componentType": 5126,
      "count": 5800,
      "max": [
        1.0,
        1.0,
        1.0
      ],
      "min": [
        -1.0,
        -1.0,
        -1.0
      ],
      "type": "VEC3"
    },
    {
      "bufferView": 1,
      "componentType": 5126,
      "count": 5800,
      "max": [
        0.9947792887687683,
        0.9970333576202393
      ],
      "min": [
        0.0097750723361969,
        0.006774246692657471
      ],
      "type": "VEC2"
    },
    {
      "bufferView": 1,
      "byteOffset": 46400,
      "componentType": 5126,
      "count": 5800,
      "max": [
        0.9947792887687683,
        0.9970333576202393
      ],
      "min": [
        0.0097750723361969,
        0.006774246692657471
      ],
      "type": "VEC2"
    },
    {
      "bufferView": 1,
      "byteOffset": 92800,
      "componentType": 5126,
      "count": 5800,
      "max": [
        0.9947792887687683,
        0.9970333576202393
      ],
      "min": [
        0.0097750723361969,
        0.006774246692657471
      ],
      "type": "VEC2"
    },
    {
      "bufferView": 0,
      "componentType": 5125,
      "count": 26358,
      "type": "SCALAR"
    }
  ],
  "asset": {
    "extras": {
      "author": "Sitti Nurjannah (https://sketchfab.com/anna.icloudku)",
      "license": "CC-BY-4.0 (http://creativecommons.org/licenses/by/4.0/)",
      "source": "https://sketchfab.com/3d-models/parts-of-laptop-62bda5657ccc45928f134f2cd1043f8f",
      "title": "Parts of Laptop"
    },
    "generator": "Sketchfab-15.30.0",
    "version": "2.0"
  },
  "bufferViews": [
    {
      "buffer": 0,
      "byteLength": 105432,
      "name": "floatBufferViews",
      "target": 34963
    },
    {
      "buffer": 0,
      "byteLength": 139200,
      "byteOffset": 105432,
      "byteStride": 8,
      "name": "floatBufferViews",
      "target": 34962
    },
    {
      "buffer": 0,
      "byteLength": 139200,
      "byteOffset": 244632,
      "byteStride": 12,
      "name": "floatBufferViews",
      "target": 34962
    }
  ],
  "buffers": [
    {
      "byteLength": 383832,
      "uri": "scene.bin"
    }
  ],
  "extensionsRequired": [
    "KHR_materials_pbrSpecularGlossiness"
  ],
  "extensionsUsed": [
    "KHR_materials_pbrSpecularGlossiness"
  ],
  "images": [
    {
      "uri": "textures/material_0_diffuse.png"
    },
    {
      "uri": "textures/material_0_specularGlossiness.png"
    }
  ],
  "materials": [
    {
      "doubleSided": true,
      "extensions": {
        "KHR_materials_pbrSpecularGlossiness": {
          "diffuseFactor": [
            1.0,
            1.0,
            1.0,
            1.0
          ],
          "diffuseTexture": {
            "index": 0
          },
          "glossinessFactor": 1.0,
          "specularFactor": [
            1.0,
            1.0,
            1.0
          ],
          "specularGlossinessTexture": {
            "index": 1
          }
        }
      },
      "name": "material_0"
    }
  ],
  "meshes": [
    {
      "name": "Object_0",
      "primitives": [
        {
          "attributes": {
            "NORMAL": 1,
            "POSITION": 0,
            "TEXCOORD_0": 2,
            "TEXCOORD_1": 3,
            "TEXCOORD_2": 4
          },
          "indices": 5,
          "material": 0,
          "mode": 4
        }
      ]
    }
  ],
  "nodes": [
    {
      "children": [
        1
      ],
      "matrix": [
        9.322720527648926,
        0.0,
        0.0,
        0.0,
        0.0,
        2.070059796388285e-15,
        -9.322720527648926,
        0.0,
        0.0,
        9.322720527648926,
        2.070059796388285e-15,
        0.0,
        0.0,
        0.0,
        0.0,
        1.0
      ],
      "name": "Sketchfab_model"
    },
    {
      "children": [
        2
      ],
      "name": "root"
    },
    {
      "children": [
        3
      ],
      "matrix": [
        1.0,
        0.0,
        0.0,
        0.0,
        0.0,
        2.220446049250313e-16,
        1.0,
        0.0,
        0.0,
        -1.0,
        2.220446049250313e-16,
        0.0,
        0.0,
        0.0,
        0.0,
        1.0
      ],
      "name": "GLTF_SceneRootNode"
    },
    {
      "children": [
        4
      ],
      "name": "root_0"
    },
    {
      "children": [
        5
      ],
      "matrix": [
        0.010089495219290257,
        0.0,
        0.0,
        0.0,
        0.0,
        0.010089495219290257,
        0.0,
        0.0,
        0.0,
        0.0,
        0.010089495219290257,
        0.0,
        -0.13740675151348114,
        -0.004697357304394245,
        0.304813027381897,
        1.0
      ],
      "name": "node_id30_1"
    },
    {
      "mesh": 0,
      "name": "Object_5"
    }
  ],
  "samplers": [
    {
      "magFilter": 9729,
      "minFilter": 9987,
      "wrapS": 10497,
      "wrapT": 10497
    }
  ],
  "scene": 0,
  "scenes": [
    {
      "name": "Sketchfab_Scene",
      "nodes": [
        0
      ]
    }
  ],
  "textures": [
    {
      "sampler": 0,
      "source": 0
    },
    {
      "sampler": 0,
      "source": 1
    }
  ]
}
